<?xml version="1.0" encoding="utf-8"?>
<!-- Generator: Adobe Illustrator 23.0.2, SVG Export Plug-In . SVG Version: 6.00 Build 0)  -->
<svg version="1.1" id="Layer_1" xmlns="http://www.w3.org/2000/svg" xmlns:xlink="http://www.w3.org/1999/xlink" x="0px" y="0px"
	 viewBox="0 0 375 667" style="enable-background:new 0 0 375 667;" xml:space="preserve">
<style type="text/css">
	.st0{fill:#F4F1ED;}
	.st1{fill:#34A8C4;}
</style>
<g id="bg" transform="translate(869 12)">
	<rect id="Rectangle_4" x="-872.4" y="-12" class="st0" width="381.8" height="305"/>
	<g id="Group_4" transform="translate(-0.8 -125.132)">
		<g id="Group_1" transform="translate(125.512 237.381)">
			<path id="Path_4" class="st1" d="M-805.8-51.1v-5.2c-2.1-0.2-4.9,1.2-8,5.2c-8.8,11.2-16.6,0-16.6,0s-8.1-11.2-16.6,0.3
				c-8.5,11.5-14.8,0-14.8,0s-3-5.3-7.9-5.6c0,1.6,0.1,4,0,4.9c0.2,11.3,0,16.8,0,16.8h63.9V-51.1z"/>
			<path id="Path_5" class="st1" d="M-742.9-51v-5.2c-2-0.2-4.9,1.2-8,5.2c-8.7,11.2-16.4,0-16.4,0s-8-11.2-16.5,0.3
				c-8.4,11.5-14.7,0-14.7,0s-3-5.3-7.8-5.6c0,1.6,0.1,4,0,4.9c0.2,11.3,0,16.8,0,16.8h63.4V-51z"/>
		</g>
		<g id="Group_2" transform="translate(0.8 237.27)">
			<path id="Path_4-2" class="st1" d="M-807.3-51.1v-5.2c-2-0.2-4.9,1.2-8,5.2c-8.7,11.2-16.5,0-16.5,0s-8.1-11.2-16.5,0.3
				s-14.8,0-14.8,0s-3-5.3-7.8-5.6c0,1.6,0.1,4,0,4.9c0.2,11.3,0,16.8,0,16.8h63.6V-51.1z"/>
			<path id="Path_5-2" class="st1" d="M-744.5-51v-5.2c-2-0.2-4.9,1.2-8,5.2c-8.7,11.2-16.4,0-16.4,0s-8-11.2-16.4,0.3
				s-14.7,0-14.7,0s-3-5.3-7.8-5.6c0,1.6,0.1,4,0,4.9c0.2,11.3,0,16.8,0,16.8h63.3V-51z"/>
		</g>
		<g id="Group_3" transform="translate(250.61 237.508)">
			<path id="Path_4-3" class="st1" d="M-804.5-51.1v-5.2c-2.1-0.2-4.9,1.2-8,5.2c-8.7,11.2-16.5,0-16.5,0s-8.1-11.2-16.6,0.3
				s-14.8,0-14.8,0s-3-5.3-7.9-5.6c0,1.6,0.1,4,0,4.9c0.2,11.3,0,16.8,0,16.8h63.8V-51.1z"/>
			<path id="Path_5-3" class="st1" d="M-741.9-51v-5.2c-2-0.2-4.9,1.2-8,5.2c-8.7,11.2-16.4,0-16.4,0s-8-11.2-16.4,0.3
				s-14.7,0-14.7,0s-3-5.3-7.8-5.6c0,1.6,0.1,4,0,4.9c0.2,11.3,0,16.8,0,16.8h63.3V-51z"/>
		</g>
	</g>
	<rect id="Rectangle_5" x="-909.3" y="70.7" class="st1" width="418.6" height="590"/>
</g>
</svg>
