<svg xmlns="http://www.w3.org/2000/svg" viewBox="869 12 375 667">
  <defs>
    <style>
      .cls-1 {
        fill: #f4f1ed;
      }

      .cls-2 {
        fill: #34a8c4;
      }
    </style>
  </defs>
  <g id="bg" transform="translate(869 12)">
    <rect id="Rectangle_4" data-name="Rectangle 4" class="cls-1" width="375" height="305"/>
    <g id="Group_4" data-name="Group 4" transform="translate(-0.8 -125.132)">
      <g id="Group_1" data-name="Group 1" transform="translate(125.512 237.381)">
        <path id="Path_4" data-name="Path 4" class="cls-2" d="M71.05,256.716v-5.185c-2.035-.181-4.855,1.158-7.967,5.185-8.667,11.217-16.388,0-16.388,0s-8.018-11.167-16.426.321-14.671,0-14.671,0-3.014-5.344-7.789-5.565c0,1.564.116,3.994,0,4.905.15,11.338,0,16.844,0,16.844H71.05Z" transform="translate(-7.81 -251.472)"/>
        <path id="Path_5" data-name="Path 5" class="cls-2" d="M70.6,256.716v-5.185c-2.02-.181-4.82,1.158-7.909,5.185-8.605,11.217-16.271,0-16.271,0s-7.961-11.167-16.309.321-14.566,0-14.566,0-2.992-5.344-7.733-5.565c0,1.564.115,3.994,0,4.905.149,11.338,0,16.844,0,16.844H70.6Z" transform="translate(54.885 -251.411)"/>
      </g>
      <g id="Group_2" data-name="Group 2" transform="translate(0.8 237.27)">
        <path id="Path_4-2" data-name="Path 4" class="cls-2" d="M70.769,256.716v-5.185c-2.025-.181-4.833,1.158-7.931,5.185-8.629,11.217-16.315,0-16.315,0s-7.982-11.167-16.353.321-14.605,0-14.605,0-3-5.344-7.754-5.565c0,1.564.116,3.994,0,4.905.149,11.338,0,16.844,0,16.844H70.769Z" transform="translate(-7.81 -251.472)"/>
        <path id="Path_5-2" data-name="Path 5" class="cls-2" d="M70.451,256.716v-5.185c-2.015-.181-4.809,1.158-7.891,5.185-8.585,11.217-16.233,0-16.233,0s-7.942-11.167-16.271.321-14.532,0-14.532,0-2.985-5.344-7.715-5.565c0,1.564.115,3.994,0,4.905.149,11.338,0,16.844,0,16.844H70.451Z" transform="translate(54.739 -251.411)"/>
      </g>
      <g id="Group_3" data-name="Group 3" transform="translate(250.61 237.508)">
        <path id="Path_4-3" data-name="Path 4" class="cls-2" d="M70.973,256.716v-5.185c-2.032-.181-4.849,1.158-7.957,5.185-8.657,11.217-16.368,0-16.368,0s-8.008-11.167-16.406.321-14.653,0-14.653,0-3.01-5.344-7.779-5.565c0,1.564.116,3.994,0,4.905.15,11.338,0,16.844,0,16.844H70.973Z" transform="translate(-7.81 -251.472)"/>
        <path id="Path_5-3" data-name="Path 5" class="cls-2" d="M70.451,256.716v-5.185c-2.015-.181-4.809,1.158-7.891,5.185-8.585,11.217-16.233,0-16.233,0s-7.942-11.167-16.271.321-14.532,0-14.532,0-2.985-5.344-7.715-5.565c0,1.564.115,3.994,0,4.905.149,11.338,0,16.844,0,16.844H70.451Z" transform="translate(54.739 -251.411)"/>
      </g>
    </g>
    <rect id="Rectangle_5" data-name="Rectangle 5" class="cls-2" width="375" height="540" transform="translate(0 127)"/>
  </g>
</svg>
