<svg xmlns="http://www.w3.org/2000/svg" viewBox="443 13 375 667">
  <defs>
    <style>
      .cls-1 {
        fill: #f4f1ed;
      }

      .cls-2 {
        fill: #34a8c4;
      }
    </style>
  </defs>
  <g id="Symbol_1_1" data-name="Symbol 1 – 1" transform="translate(443 13)">
    <path id="Path_733" data-name="Path 733" class="cls-1" d="M0,0H375V305H0Z"/>
    <g id="Group_1" data-name="Group 1" transform="translate(-0.8 24.868)">
      <g id="Group_1-2" data-name="Group 1" transform="translate(125.512 237.381)">
        <path id="Path_4" data-name="Path 4" class="cls-2" d="M70.451,256.716v-5.185c-2.015-.181-4.809,1.158-7.891,5.185-8.585,11.217-16.233,0-16.233,0s-7.942-11.167-16.271.321-14.532,0-14.532,0-2.985-5.344-7.715-5.565c0,1.564.115,3.994,0,4.905.149,11.338,0,16.844,0,16.844H70.451Z" transform="translate(-7.81 -251.472)"/>
        <path id="Path_5" data-name="Path 5" class="cls-2" d="M70.561,256.716v-5.185c-2.019-.181-4.817,1.158-7.9,5.185-8.6,11.217-16.261,0-16.261,0s-7.956-11.167-16.3.321-14.557,0-14.557,0-2.99-5.344-7.729-5.565c0,1.564.115,3.994,0,4.905.149,11.338,0,16.844,0,16.844H70.561Z" transform="translate(54.63 -251.411)"/>
      </g>
      <g id="Group_2" data-name="Group 2" transform="translate(0.8 237.27)">
        <path id="Path_4-2" data-name="Path 4" class="cls-2" d="M70.712,256.716v-5.185c-2.024-.181-4.829,1.158-7.924,5.185-8.621,11.217-16.3,0-16.3,0s-7.975-11.167-16.338.321-14.592,0-14.592,0-3-5.344-7.747-5.565c0,1.564.115,3.994,0,4.905.149,11.338,0,16.844,0,16.844h62.9Z" transform="translate(-7.81 -251.472)"/>
        <path id="Path_5-2" data-name="Path 5" class="cls-2" d="M70.451,256.716v-5.185c-2.015-.181-4.809,1.158-7.891,5.185-8.585,11.217-16.233,0-16.233,0s-7.942-11.167-16.271.321-14.532,0-14.532,0-2.985-5.344-7.715-5.565c0,1.564.115,3.994,0,4.905.149,11.338,0,16.844,0,16.844H70.451Z" transform="translate(54.739 -251.411)"/>
      </g>
      <g id="Group_3" data-name="Group 3" transform="translate(250.276 237.508)">
        <path id="Path_4-3" data-name="Path 4" class="cls-2" d="M70.618,256.716v-5.185c-2.021-.181-4.822,1.158-7.912,5.185-8.608,11.217-16.276,0-16.276,0s-7.963-11.167-16.314.321-14.571,0-14.571,0-2.993-5.344-7.736-5.565c0,1.564.115,3.994,0,4.905.149,11.338,0,16.844,0,16.844H70.618Z" transform="translate(-7.81 -251.472)"/>
        <path id="Path_5-3" data-name="Path 5" class="cls-2" d="M70.811,256.716v-5.185c-2.027-.181-4.836,1.158-7.936,5.185-8.635,11.217-16.326,0-16.326,0s-7.988-11.167-16.364.321-14.615,0-14.615,0-3-5.344-7.759-5.565c0,1.564.116,3.994,0,4.905.149,11.338,0,16.844,0,16.844h63Z" transform="translate(54.713 -251.411)"/>
      </g>
    </g>
    <rect id="Rectangle_2" data-name="Rectangle 2" class="cls-2" width="375" height="384" transform="translate(0 283)"/>
  </g>
</svg>
