<svg class="transport" id="subway" xmlns="http://www.w3.org/2000/svg" xmlns:xlink="http://www.w3.org/1999/xlink" version="1.1" x="0px" y="0px" fill="#FFFFFF" viewBox="233.5 162.6 100 100" enable-background="new 233.5 162.6 100 100" xml:space="preserve">
                    <g><path d="M304.5,165.1h-42c-9.1,0-16.5,7.4-16.5,16.5v47.6c0,9.1,7.4,16.5,16.5,16.5h0.3h1.7l2.9-4.9c0.7-1.2,2-1.9,3.3-1.9h25.2   c1.3,0,2.5,0.7,3.2,1.7l3.3,5h2c9.1,0,16.5-7.4,16.5-16.5v-47.6C320.9,172.5,313.6,165.1,304.5,165.1z M273.9,172.4   c0-1.4,1.2-2.6,2.6-2.6h14c1.4,0,2.6,1.2,2.6,2.6v0.4c0,1.4-1.2,2.6-2.6,2.6h-14c-1.4,0-2.6-1.2-2.6-2.6V172.4z M259.9,226.9   c-3,0-5.4-2.4-5.4-5.4s2.4-5.4,5.4-5.4s5.4,2.4,5.4,5.4S262.9,226.9,259.9,226.9z M307,226.9c-3,0-5.4-2.4-5.4-5.4s2.4-5.4,5.4-5.4   c3,0,5.4,2.4,5.4,5.4S310,226.9,307,226.9z M312.4,184.5v18.8v0c0,2.8-2.3,5.1-5.1,5.1h-47.8c-2.8,0-5.1-2.3-5.1-5.1v0v-18.8v0   c0-2.8,2.3-5.1,5.1-5.1h47.8C310.2,179.3,312.4,181.6,312.4,184.5L312.4,184.5z"/>
                        <path d="M294.4,242.6h-21.8c-0.7,0-1.4,0.4-1.8,1l-10.1,16.5h7.6l2.3-3.9h25.8l2.3,3.9h7.6l-10.1-16.5   C295.8,242.9,295.1,242.6,294.4,242.6z M274.5,249.7l2.1-3.6h13.7l2.1,3.6H274.5z"/></g>
                </svg>