<?xml version="1.0" encoding="UTF-8"?>
<svg width="38px" height="38px" viewBox="0 0 38 38" version="1.1" xmlns="http://www.w3.org/2000/svg" xmlns:xlink="http://www.w3.org/1999/xlink">
    <!-- Generator: Sketch 47.1 (45422) - http://www.bohemiancoding.com/sketch -->
    <title>Oval</title>
    <desc>Created with Sketch.</desc>
    <defs></defs>
    <g id="Page-1" stroke="none" stroke-width="1" fill="none" fill-rule="evenodd">
        <g id="Artboard" transform="translate(-2.000000, -2.000000)" fill="#FFFFFF">
            <path d="M20.9475649,39.9785209 C30.7123505,39.4615339 40,31.4767394 40,20.9892604 C40,10.5017815 31.4699342,2 20.9475649,2 C11.118377,2 3.0276452,9.41853457 2.0043163,18.9443267 C1.89512979,18.9903909 12.925487,18.9443267 15.9337662,18.9903909 C15.9337662,18.9903909 15.9337662,16.491804 15.9337662,15.9920866 C18.4406655,15.9920866 24.457224,15.9920866 25.9613636,15.9920866 C25.9613636,17.4912388 25.9613636,25.4867169 25.9613636,25.9864342 C25.4599837,25.9864342 16.4351461,25.9864342 15.9337662,25.9864342 C15.9337662,25.9864342 15.9337662,23.4878473 15.9337662,23.0010914 C12.4241071,22.98813 1.89512979,22.98813 2.00078951,23.0010914 C3.00890838,32.5427941 11.7127453,40.4674494 20.9475649,39.9785209 Z" id="Oval"></path>
        </g>
    </g>
</svg>